<svg xmlns="http://www.w3.org/2000/svg" width="980" height="650" viewBox="0 0 980 650" role="img" aria-labelledby="title desc">
<title id="title">v5.1 MLM training trace</title>
<desc id="desc">Training loss and learning-rate trace for v51_strict5pct_random_mlm_3k.</desc>
<style>
  text { font-family: Arial, Helvetica, sans-serif; fill: #111827; }
  .title { font-size: 24px; font-weight: 700; }
  .subtitle { font-size: 13px; fill: #374151; }
  .panel-title { font-size: 16px; font-weight: 700; }
  .axis-label { font-size: 12px; fill: #4b5563; }
  .tick { font-size: 11px; fill: #4b5563; }
  .plot-bg { fill: #ffffff; stroke: #d1d5db; stroke-width: 1; }
  .grid { stroke: #e5e7eb; stroke-width: 1; }
  .axis { stroke: #6b7280; stroke-width: 1; }
  .trace { fill: none; stroke-width: 3; stroke-linecap: round; stroke-linejoin: round; }
  .badge { fill: #f9fafb; stroke: #d1d5db; }
  .badge-text { font-size: 12px; fill: #111827; }
</style>
<rect width="980" height="650" fill="#f8fafc"/>
<text x="36" y="42" class="title">v5.1 Random MLM Training Trace</text>
<text x="36" y="66" class="subtitle">Checked at 2026-06-28 21:56:49 KST | latest checked step 1869/3000 | random ETA 2026-06-29 00:28 KST</text>
<rect x="36" y="84" width="275" height="34" rx="4" class="badge"/>
<text x="50" y="106" class="badge-text">latest logged loss 4.0544 at step 1800</text>
<rect x="327" y="84" width="230" height="34" rx="4" class="badge"/>
<text x="341" y="106" class="badge-text">latest logged LR 2.01e-05</text>
<text x="92" y="117" class="panel-title">Training loss</text>
<text x="92" y="131" class="axis-label">loss</text>
<rect x="92" y="135" width="820" height="190" class="plot-bg"/>
<line x1="92" y1="325.0" x2="912" y2="325.0" class="grid"/>
<text x="82" y="329.0" class="tick" text-anchor="end">3.844</text>
<line x1="92" y1="261.7" x2="912" y2="261.7" class="grid"/>
<text x="82" y="265.7" class="tick" text-anchor="end">4.862</text>
<line x1="92" y1="198.3" x2="912" y2="198.3" class="grid"/>
<text x="82" y="202.3" class="tick" text-anchor="end">5.88</text>
<line x1="92" y1="135.0" x2="912" y2="135.0" class="grid"/>
<text x="82" y="139.0" class="tick" text-anchor="end">6.898</text>
<line x1="92.0" y1="325" x2="92.0" y2="330" class="axis"/>
<text x="92.0" y="347" class="tick" text-anchor="middle">0</text>
<line x1="297.0" y1="325" x2="297.0" y2="330" class="axis"/>
<text x="297.0" y="347" class="tick" text-anchor="middle">750</text>
<line x1="502.0" y1="325" x2="502.0" y2="330" class="axis"/>
<text x="502.0" y="347" class="tick" text-anchor="middle">1500</text>
<line x1="707.0" y1="325" x2="707.0" y2="330" class="axis"/>
<text x="707.0" y="347" class="tick" text-anchor="middle">2250</text>
<line x1="912.0" y1="325" x2="912.0" y2="330" class="axis"/>
<text x="912.0" y="347" class="tick" text-anchor="middle">3000</text>
<polyline points="119.3,148.1 146.7,267.1 174.0,277.5 201.3,282.4 228.7,286.6 256.0,290.4 283.3,292.6 310.7,294.8 338.0,296.6 365.3,297.8 392.7,299.6 420.0,301.9 447.3,303.4 474.7,305.4 502.0,306.6 529.3,307.8 556.7,310.3 584.0,311.9" class="trace" stroke="#0f766e"/>
<circle cx="584.0" cy="311.9" r="4.5" fill="#0f766e"/>
<line x1="92" y1="325" x2="912" y2="325" class="axis"/>
<line x1="92" y1="135" x2="92" y2="325" class="axis"/>
<text x="92" y="387" class="panel-title">Learning-rate schedule</text>
<text x="92" y="401" class="axis-label">lr</text>
<rect x="92" y="405" width="820" height="130" class="plot-bg"/>
<line x1="92" y1="535.0" x2="912" y2="535.0" class="grid"/>
<text x="82" y="539.0" class="tick" text-anchor="end">1.585e-05</text>
<line x1="92" y1="491.7" x2="912" y2="491.7" class="grid"/>
<text x="82" y="495.7" class="tick" text-anchor="end">2.813e-05</text>
<line x1="92" y1="448.3" x2="912" y2="448.3" class="grid"/>
<text x="82" y="452.3" class="tick" text-anchor="end">4.041e-05</text>
<line x1="92" y1="405.0" x2="912" y2="405.0" class="grid"/>
<text x="82" y="409.0" class="tick" text-anchor="end">5.268e-05</text>
<line x1="92.0" y1="535" x2="92.0" y2="540" class="axis"/>
<text x="92.0" y="557" class="tick" text-anchor="middle">0</text>
<line x1="297.0" y1="535" x2="297.0" y2="540" class="axis"/>
<text x="297.0" y="557" class="tick" text-anchor="middle">750</text>
<line x1="502.0" y1="535" x2="502.0" y2="540" class="axis"/>
<text x="502.0" y="557" class="tick" text-anchor="middle">1500</text>
<line x1="707.0" y1="535" x2="707.0" y2="540" class="axis"/>
<text x="707.0" y="557" class="tick" text-anchor="middle">2250</text>
<line x1="912.0" y1="535" x2="912.0" y2="540" class="axis"/>
<text x="912.0" y="557" class="tick" text-anchor="middle">3000</text>
<polyline points="119.3,420.0 146.7,425.9 174.0,431.8 201.3,437.6 228.7,443.5 256.0,449.4 283.3,455.3 310.7,461.2 338.0,467.1 365.3,472.9 392.7,478.8 420.0,484.7 447.3,490.6 474.7,496.5 502.0,502.4 529.3,508.2 556.7,514.1 584.0,520.0" class="trace" stroke="#b45309"/>
<circle cx="584.0" cy="520.0" r="4.5" fill="#b45309"/>
<line x1="92" y1="535" x2="912" y2="535" class="axis"/>
<line x1="92" y1="405" x2="92" y2="535" class="axis"/>
<text x="502" y="585" class="axis-label" text-anchor="middle">optimization step</text>
<text x="36" y="622" class="subtitle">Note: this figure is an optimization trace only; final claims use held-out PPPL and downstream metrics.</text>
</svg>
